# xmcd
#
# Track frame offsets: 
#        150
#        12426
#        29449
#        47166
#        63446
#        80652
#
# Disc length: 1354 seconds
#
# Revision: 0
# Processed by: cddbd v1.5.2PL0 Copyright (c) Steve Scherf et al.
# Submitted via: ExactAudioCopy v0.99pb3
#
DISCID=4a054806
DTITLE=Various Artist - 679 2005-1
DYEAR=2005
DGENRE=679
TTITLE0=Futureheads - Decent Days And Nights
TTITLE1=Kano - Reload It
TTITLE2=Mystery Jets - Zoo Time
TTITLE3=Annie - Always Too Late (ег$ Productions remix)
TTITLE4=Death From Above 1979 - Black History Month
TTITLE5=Secret Machines - Road Leads Where It's Led
EXTD=
EXTT0=
EXTT1=
EXTT2=
EXTT3=
EXTT4=
EXTT5=
PLAYORDER=
